<?xml version="1.0" encoding="utf-8"?>
<!-- Generator: Adobe Illustrator 25.4.1, SVG Export Plug-In . SVG Version: 6.00 Build 0)  -->
<svg version="1.0" id="katman_1" xmlns="http://www.w3.org/2000/svg" xmlns:xlink="http://www.w3.org/1999/xlink" x="0px" y="0px"
	 viewBox="0 0 1024 768" style="enable-background:new 0 0 1024 768;" xml:space="preserve">
<style type="text/css">
	.st0{fill:#9C9C9D;}
	.st1{fill:#E75225;}
</style>
<path class="st0" d="M203.9,618.4v33.3H198V569h21.3c9.8,0,17,2.1,21.9,6.4s7.4,10.3,7.4,18.2c0,3.5-0.7,6.9-2.1,10
	s-3.3,5.6-5.8,7.8s-5.6,3.8-9.2,5.2c-3.5,1.2-7.7,1.8-12.3,1.8C219.3,618.4,203.9,618.4,203.9,618.4z M203.9,613.7h15.4
	c3.7,0,6.9-0.4,9.8-1.5c2.8-1,5.3-2.4,7.4-4.1c2.1-1.8,3.5-3.8,4.6-6.4c1-2.4,1.6-5,1.6-8c0-6.4-1.9-11.2-5.9-14.6
	c-3.8-3.4-9.8-5.2-17.4-5.2h-15.4C203.9,573.9,203.9,613.7,203.9,613.7z M268.3,651.8v-58.1h3c0.6,0,1.2,0.1,1.5,0.4
	c0.3,0.3,0.4,0.7,0.4,1.3l0.4,12.3c1.9-4.7,4.3-8.4,7.5-11.1c3.1-2.7,6.9-4,11.5-4c1.8,0,3.4,0.1,4.9,0.6c1.5,0.4,2.8,0.9,4.1,1.6
	l-0.7,3.8c-0.1,0.6-0.4,0.9-1.2,0.9c-0.3,0-0.6-0.1-1-0.3c-0.4-0.1-1-0.3-1.6-0.6c-0.6-0.1-1.5-0.3-2.4-0.6
	c-0.9-0.1-2.1-0.3-3.3-0.3c-4.4,0-8,1.3-10.8,4.1c-2.8,2.7-5.2,6.7-6.8,11.8v37.8C274,651.6,268.3,651.8,268.3,651.8z M343,592.7
	c4.1,0,7.8,0.7,11.2,2.1c3.3,1.5,6.1,3.4,8.3,6.1c2.2,2.7,4,5.8,5.2,9.5s1.8,7.8,1.8,12.4c0,4.6-0.6,8.7-1.8,12.3
	c-1.2,3.7-3,6.8-5.2,9.5c-2.2,2.7-5,4.6-8.3,6.1c-3.3,1.3-6.9,2.1-11.2,2.1c-4.1,0-7.8-0.7-11.2-2.1c-3.3-1.3-6.1-3.4-8.3-6.1
	s-4-5.8-5.2-9.5c-1.2-3.7-1.8-7.8-1.8-12.3c0-4.6,0.6-8.7,1.8-12.4s3-6.8,5.2-9.5s5-4.6,8.3-6.1C335,593.4,338.8,592.7,343,592.7z
	 M343,648.1c3.4,0,6.5-0.6,9-1.8c2.7-1.2,4.7-3,6.5-5.2c1.8-2.2,3-4.9,3.8-8s1.3-6.7,1.3-10.5c0-3.8-0.4-7.4-1.3-10.5
	c-0.9-3.1-2.2-5.9-3.8-8.1c-1.8-2.2-3.8-4-6.5-5.2c-2.7-1.2-5.6-1.8-9-1.8s-6.5,0.6-9,1.8c-2.7,1.2-4.7,3-6.5,5.2s-3.1,4.9-3.8,8.1
	c-0.9,3.1-1.3,6.7-1.3,10.5c0,3.8,0.4,7.4,1.3,10.5c0.9,3.1,2.2,5.8,3.8,8c1.8,2.2,3.8,4,6.5,5.2C336.5,647.5,339.4,648.1,343,648.1
	z M388.6,651.8v-58.1h3.1c1,0,1.6,0.4,1.8,1.5l0.6,8.4c1.2-1.6,2.4-3.1,3.7-4.4s2.7-2.5,4.1-3.4c1.5-0.9,3-1.6,4.7-2.2
	c1.6-0.6,3.4-0.7,5.2-0.7c4.3,0,7.7,1.2,10.2,3.7c2.5,2.5,4.3,5.9,5.2,10.3c0.7-2.4,1.6-4.4,3-6.2c1.3-1.8,2.7-3.3,4.3-4.3
	c1.6-1.2,3.4-2.1,5.3-2.5c1.9-0.4,3.8-0.9,5.9-0.9c2.8,0,5.5,0.4,7.7,1.5c2.4,0.9,4.3,2.4,5.9,4.3c1.6,1.9,2.8,4.1,3.7,6.9
	c0.9,2.7,1.3,5.8,1.3,9.3v37.1h-5.6V615c0-5.6-1.2-10-3.7-13c-2.5-3-5.9-4.4-10.5-4.4c-2.1,0-4,0.3-5.8,1.2s-3.5,1.8-4.9,3.3
	c-1.5,1.5-2.5,3.3-3.4,5.5c-0.9,2.2-1.2,4.7-1.2,7.5v37.1h-5.6V615c0-5.6-1.2-9.9-3.4-13c-2.2-3-5.6-4.4-9.9-4.4
	c-3.1,0-6.1,0.9-8.7,2.8c-2.7,1.9-5,4.4-7.2,7.8v43.9C394.4,652.1,388.6,651.8,388.6,651.8z M508,592.7c3.3,0,6.4,0.6,9,1.6
	c2.8,1.2,5.2,2.8,7.2,4.9c2.1,2.2,3.7,4.9,4.7,8c1.2,3.1,1.8,6.8,1.8,10.8c0,0.9-0.1,1.5-0.4,1.8c-0.3,0.3-0.6,0.4-1.2,0.4h-42v1
	c0,4.3,0.4,8.1,1.5,11.5c1,3.3,2.5,6.1,4.3,8.3c1.9,2.2,4.1,4,6.8,5c2.7,1.2,5.6,1.6,8.9,1.6c3,0,5.5-0.3,7.5-1
	c2.1-0.6,4-1.3,5.3-2.2c1.5-0.7,2.7-1.5,3.5-2.2c0.9-0.6,1.5-1,1.9-1s0.9,0.1,1.2,0.6l1.5,1.9c-0.9,1.2-2.2,2.2-3.7,3.3
	c-1.5,1-3.3,1.9-5.2,2.7c-1.9,0.7-3.8,1.3-6.1,1.8c-2.2,0.4-4.3,0.6-6.5,0.6c-4,0-7.5-0.7-10.8-2.1c-3.3-1.3-6.1-3.4-8.4-6.1
	c-2.4-2.7-4.1-5.9-5.5-9.8c-1.3-3.8-1.9-8.3-1.9-13.2c0-4.1,0.6-8,1.8-11.5s3-6.5,5.2-9.2c2.2-2.5,5-4.6,8.3-5.9
	C500.2,593.4,503.9,592.7,508,592.7L508,592.7z M508,596.8c-3,0-5.6,0.4-8,1.3c-2.4,0.9-4.4,2.2-6.2,4c-1.8,1.8-3.1,3.8-4.1,6.4
	c-1,2.5-1.8,5.2-2.1,8.3h38.3c0-3.1-0.4-5.9-1.3-8.4c-0.9-2.5-2.1-4.6-3.5-6.2c-1.5-1.6-3.4-3-5.6-4
	C513.2,597.3,510.7,596.8,508,596.8z M563.8,652.7c-4,0-6.9-1-9.2-3.3c-2.2-2.2-3.3-5.6-3.3-10v-39.8h-8.3c-0.4,0-0.7-0.1-1-0.3
	c-0.3-0.3-0.4-0.6-0.4-1v-2.2l9.9-0.7l1.3-20.8c0-0.3,0.1-0.6,0.4-0.9c0.3-0.3,0.6-0.4,1-0.4h2.7v22.2h18.3v4.1H557v39.5
	c0,1.6,0.1,3,0.6,4.1c0.4,1.2,1,2.1,1.6,2.8c0.6,0.7,1.6,1.3,2.5,1.6c1,0.3,2.1,0.6,3.1,0.6c1.3,0,2.7-0.1,3.7-0.6
	c1-0.4,1.9-0.9,2.7-1.3c0.7-0.4,1.3-0.9,1.8-1.3c0.4-0.4,0.9-0.6,1.2-0.6s0.6,0.1,0.9,0.6l1.5,2.5c-1.5,1.6-3.4,3-5.6,4
	C568.6,652.1,566.3,652.7,563.8,652.7z M594.3,651.8v-85h5.6v36.8c2.7-3.3,5.8-5.9,9.2-8c3.4-1.9,7.2-3,11.5-3
	c3.3,0,6.1,0.4,8.4,1.5s4.4,2.5,6.1,4.4c1.6,1.9,2.8,4.1,3.5,6.9c0.9,2.7,1.2,5.8,1.2,9.2v37.1h-5.6v-37.1c0-5.5-1.2-9.8-3.7-12.9
	c-2.5-3.1-6.4-4.6-11.4-4.6c-3.8,0-7.4,1-10.6,3s-6.2,4.7-8.7,8.1v43.6h-5.5V651.8z M684.1,592.7c3.3,0,6.4,0.6,9,1.6
	c2.8,1.2,5.2,2.8,7.2,4.9c2.1,2.2,3.7,4.9,4.7,8c1.2,3.1,1.8,6.8,1.8,10.8c0,0.9-0.1,1.5-0.4,1.8c-0.3,0.3-0.6,0.4-1.2,0.4h-41.8v1
	c0,4.3,0.4,8.1,1.5,11.5c1,3.3,2.5,6.1,4.3,8.3c1.9,2.2,4.1,4,6.8,5c2.7,1.2,5.6,1.6,8.9,1.6c3,0,5.5-0.3,7.5-1
	c2.1-0.6,4-1.3,5.3-2.2c1.5-0.7,2.7-1.5,3.5-2.2c0.9-0.6,1.5-1,1.9-1c0.4,0,0.9,0.1,1.2,0.6l1.5,1.9c-0.9,1.2-2.2,2.2-3.7,3.3
	c-1.5,1-3.3,1.9-5.2,2.7c-1.9,0.7-3.8,1.3-6.1,1.8c-2.2,0.4-4.3,0.6-6.5,0.6c-4,0-7.5-0.7-10.8-2.1c-3.3-1.3-6.1-3.4-8.4-6.1
	s-4.1-5.9-5.5-9.8c-1.3-3.8-1.9-8.3-1.9-13.2c0-4.1,0.6-8,1.8-11.5c1.2-3.5,3-6.5,5.2-9.2c2.2-2.5,5-4.6,8.3-5.9
	C676.2,593.4,679.9,592.7,684.1,592.7L684.1,592.7z M684.1,596.8c-3,0-5.6,0.4-8,1.3c-2.4,0.9-4.4,2.2-6.2,4
	c-1.8,1.8-3.1,3.8-4.1,6.4c-1,2.5-1.8,5.2-2.1,8.3h38.1c0-3.1-0.4-5.9-1.3-8.4c-0.9-2.5-2.1-4.6-3.5-6.2c-1.5-1.6-3.4-3-5.6-4
	C689.1,597.3,686.7,596.8,684.1,596.8z M728.2,593.7v37.1c0,5.5,1.2,9.8,3.7,12.9c2.5,3.1,6.4,4.6,11.4,4.6c3.8,0,7.4-1,10.6-3
	c3.3-1.9,6.2-4.6,8.9-8v-43.6h5.6v58.1h-3.1c-1,0-1.6-0.4-1.6-1.5l-0.6-8.6c-2.7,3.4-5.8,6.1-9.3,8.1c-3.5,2.1-7.4,3.1-11.8,3.1
	c-3.3,0-6.1-0.4-8.4-1.5s-4.4-2.5-6.1-4.4s-2.8-4.1-3.7-6.9c-0.9-2.7-1.2-5.8-1.2-9.2v-37.1L728.2,593.7z M821.5,601
	c-0.3,0.6-0.7,0.9-1.3,0.9c-0.4,0-1-0.3-1.6-0.7c-0.7-0.4-1.6-1-2.7-1.6c-1-0.6-2.5-1.2-4.1-1.6c-1.6-0.4-3.5-0.7-5.9-0.7
	c-2.1,0-4,0.3-5.8,0.9s-3.3,1.5-4.4,2.4c-1.2,1-2.2,2.2-2.8,3.5c-0.7,1.3-1,2.8-1,4.3c0,1.8,0.4,3.4,1.3,4.6
	c0.9,1.2,2.2,2.2,3.7,3.1c1.5,0.9,3.3,1.6,5.2,2.2s3.8,1.2,5.9,1.9c2.1,0.6,4,1.3,5.9,2.1c1.9,0.7,3.7,1.8,5.2,2.8
	c1.5,1.2,2.8,2.5,3.7,4.1c0.9,1.6,1.3,3.7,1.3,5.9c0,2.5-0.4,4.9-1.3,7.1c-0.9,2.2-2.2,4.1-4,5.6c-1.8,1.5-3.8,2.8-6.4,3.8
	s-5.5,1.3-8.6,1.3c-4.1,0-7.5-0.6-10.5-1.9s-5.6-3-8-5.2l1.3-1.9c0.1-0.3,0.4-0.6,0.6-0.7c0.3-0.1,0.6-0.3,1-0.3
	c0.4,0,1.2,0.3,1.9,0.9c0.7,0.6,1.6,1.3,3,2.1c1.2,0.7,2.7,1.3,4.4,2.1c1.8,0.6,4,0.9,6.5,0.9c2.5,0,4.6-0.3,6.5-1
	c1.9-0.7,3.4-1.6,4.7-2.8c1.2-1.2,2.2-2.5,2.8-4.1s1-3.3,1-5c0-1.9-0.4-3.5-1.3-4.9c-0.9-1.3-2.2-2.4-3.7-3.3
	c-1.5-0.9-3.3-1.6-5.2-2.2s-3.8-1.2-5.9-1.9c-2.1-0.6-4-1.3-5.9-2.1s-3.7-1.6-5.2-2.8c-1.5-1.2-2.8-2.5-3.7-4.1
	c-0.9-1.6-1.3-3.7-1.3-6.1c0-2.1,0.4-4,1.3-5.9c0.9-1.9,2.2-3.5,3.8-5c1.6-1.5,3.7-2.7,6.1-3.4c2.4-0.9,5-1.3,8-1.3
	c3.5,0,6.7,0.4,9.5,1.5c2.8,1,5.3,2.7,7.5,4.7C823.1,598.9,821.5,601,821.5,601z"/>
<path class="st1" d="M511.4,114c109.9,0,200.1,89.1,199.9,197.4c-0.1,110.1-90,197.9-202.3,197.9c-109.7-0.1-198.5-89.3-198.5-199.4
	C310.8,202.2,401.2,114,511.4,114z M450.7,183.3c2.5,12.3,0,23.8-3.7,35.2c-2.5,7.8-6.2,15.4-8.3,23.3c-3.5,13.2-7.5,26.3-9,39.6
	c-2.1,19.2,5.5,36.2,18.5,53.1c-21.1-4.4-40.3-8.4-59.9-12.6c0.1,1.9,0,2.7,0.1,3.3c5.6,16.6,15.7,30.4,26.9,43.7
	c1.2,1.3,3.8,2.1,5.9,2.1c59.7,0.1,119.3,0.1,179,0c1.9,0,4.3-0.3,5.5-1.5c12.9-13.3,22.6-28.5,28.7-47.7
	c-21.9,4.3-42.7,8.3-63.4,12.3c4.1-8.1,9-15.4,11.7-23.2c9.3-26.9,5.5-52.9-8-77.4c-10.8-19.7-20.8-39.3-15.4-63
	c-11.4,11.2-15.8,25.4-18.6,40.2c-2.8,14.5-4.3,29.1-6.5,43.9c-0.3-0.4-0.7-0.7-0.7-1.2c-0.3-1.5-0.4-3.1-0.6-4.6
	c-1.3-24.1-6.1-47.3-16-69.3c-5.9-13-12.4-26.3-6.4-41.8c-4.1,2.2-7.8,4.3-10.5,7.4c-8,9.2-11.2,20-12,31.9
	c-0.7,10.2-1.8,20.5-3.5,30.6c-2.1,10.5-5.2,20.8-12.3,30.6C469.6,217,469.3,196.5,450.7,183.3z M604.5,389.2H417.5v32.4h187.1
	V389.2z M454.5,438.1c-0.1,26.9,27.5,47,61.5,45.5c28.2-1.2,53.2-23.3,51.1-45.5C567.2,438.1,454.5,438.1,454.5,438.1z"/>
</svg>
